<mxfile host="app.diagrams.net" modified="2022-04-26T23:34:42.372Z" agent="5.0 (Windows NT 10.0; Win64; x64) AppleWebKit/537.36 (KHTML, like Gecko) Chrome/100.0.4896.127 Safari/537.36" etag="GkeYtptJOTepYgneOJBU" version="17.4.6" type="github">
  <diagram name="Page-1" id="6133507b-19e7-1e82-6fc7-422aa6c4b21f">
    <mxGraphModel dx="982" dy="534" grid="1" gridSize="10" guides="1" tooltips="1" connect="1" arrows="1" fold="1" page="1" pageScale="1" pageWidth="1100" pageHeight="850" background="none" math="0" shadow="0">
      <root>
        <mxCell id="0" />
        <mxCell id="1" parent="0" />
        <mxCell id="slNrmW9RMhDzgAEfFMF--1" value="ModemDAO" style="swimlane;fontStyle=0;childLayout=stackLayout;horizontal=1;startSize=26;fillColor=none;horizontalStack=0;resizeParent=1;resizeParentMax=0;resizeLast=0;collapsible=1;marginBottom=0;" vertex="1" parent="1">
          <mxGeometry x="435" y="260" width="190" height="78" as="geometry" />
        </mxCell>
        <mxCell id="slNrmW9RMhDzgAEfFMF--2" value="+ modem : Modem" style="text;strokeColor=none;fillColor=none;align=left;verticalAlign=top;spacingLeft=4;spacingRight=4;overflow=hidden;rotatable=0;points=[[0,0.5],[1,0.5]];portConstraint=eastwest;" vertex="1" parent="slNrmW9RMhDzgAEfFMF--1">
          <mxGeometry y="26" width="190" height="26" as="geometry" />
        </mxCell>
        <mxCell id="slNrmW9RMhDzgAEfFMF--3" value="+ jdbcTemplate : JDBCTemplate" style="text;strokeColor=none;fillColor=none;align=left;verticalAlign=top;spacingLeft=4;spacingRight=4;overflow=hidden;rotatable=0;points=[[0,0.5],[1,0.5]];portConstraint=eastwest;" vertex="1" parent="slNrmW9RMhDzgAEfFMF--1">
          <mxGeometry y="52" width="190" height="26" as="geometry" />
        </mxCell>
        <mxCell id="slNrmW9RMhDzgAEfFMF--9" value="Modem" style="swimlane;fontStyle=0;childLayout=stackLayout;horizontal=1;startSize=26;fillColor=none;horizontalStack=0;resizeParent=1;resizeParentMax=0;resizeLast=0;collapsible=1;marginBottom=0;" vertex="1" parent="1">
          <mxGeometry x="650" y="260" width="230" height="104" as="geometry" />
        </mxCell>
        <mxCell id="slNrmW9RMhDzgAEfFMF--10" value="+ id: int" style="text;strokeColor=none;fillColor=none;align=left;verticalAlign=top;spacingLeft=4;spacingRight=4;overflow=hidden;rotatable=0;points=[[0,0.5],[1,0.5]];portConstraint=eastwest;" vertex="1" parent="slNrmW9RMhDzgAEfFMF--9">
          <mxGeometry y="26" width="230" height="26" as="geometry" />
        </mxCell>
        <mxCell id="slNrmW9RMhDzgAEfFMF--11" value="+ ip: String" style="text;strokeColor=none;fillColor=none;align=left;verticalAlign=top;spacingLeft=4;spacingRight=4;overflow=hidden;rotatable=0;points=[[0,0.5],[1,0.5]];portConstraint=eastwest;" vertex="1" parent="slNrmW9RMhDzgAEfFMF--9">
          <mxGeometry y="52" width="230" height="26" as="geometry" />
        </mxCell>
        <mxCell id="slNrmW9RMhDzgAEfFMF--12" value="+ valuesMap: HashMap&lt;String, Object&gt;" style="text;strokeColor=none;fillColor=none;align=left;verticalAlign=top;spacingLeft=4;spacingRight=4;overflow=hidden;rotatable=0;points=[[0,0.5],[1,0.5]];portConstraint=eastwest;" vertex="1" parent="slNrmW9RMhDzgAEfFMF--9">
          <mxGeometry y="78" width="230" height="26" as="geometry" />
        </mxCell>
        <mxCell id="slNrmW9RMhDzgAEfFMF--14" value="&lt;div style=&quot;text-align: left&quot;&gt;&lt;span&gt;&lt;b&gt;HashMap&amp;lt;String, Object&amp;gt; : valuesMap&lt;/b&gt; =&amp;nbsp;&lt;/span&gt;&lt;/div&gt;&lt;div style=&quot;text-align: left&quot;&gt;&lt;span&gt;{&lt;/span&gt;&lt;span&gt;&quot;rsl&quot; : int rsl,&lt;/span&gt;&lt;/div&gt;&lt;div style=&quot;text-align: left&quot;&gt;&quot;temperature&quot; : int temperature,&lt;/div&gt;&lt;div style=&quot;text-align: left&quot;&gt;&quot;ebNo&quot; : float ebNo,&lt;/div&gt;&lt;div style=&quot;text-align: left&quot;&gt;&quot;ebNoRemote&quot; : float ebNoRemote,&lt;/div&gt;&lt;div style=&quot;text-align: left&quot;&gt;&quot;txPowerLevelIncrease&quot; : float txPowerLevelIncrease,&lt;/div&gt;&lt;div style=&quot;text-align: left&quot;&gt;&quot;ber&quot; : float ber,&lt;/div&gt;&lt;div style=&quot;text-align: left&quot;&gt;&quot;unitAlarm&quot; : String unitAlarm,&lt;/div&gt;&lt;div style=&quot;text-align: left&quot;&gt;&quot;txAlarm&quot; : String txAlarm,&lt;/div&gt;&lt;div style=&quot;text-align: left&quot;&gt;&quot;rxAlarm&quot; : String rxAlarm,&lt;/div&gt;&lt;div style=&quot;text-align: left&quot;&gt;&quot;oduAlarm&quot; : String oduAlarm,&lt;/div&gt;&lt;div style=&quot;text-align: left&quot;&gt;&quot;timestampWotz&quot; : LocalDateTime timestampWotz&lt;span&gt;}&lt;/span&gt;&lt;/div&gt;" style="html=1;labelBackgroundColor=none;fontFamily=Helvetica;fontColor=#000000;" vertex="1" parent="1">
          <mxGeometry x="50" y="370" width="290" height="190" as="geometry" />
        </mxCell>
        <mxCell id="slNrmW9RMhDzgAEfFMF--15" value="ModemThread" style="swimlane;fontStyle=0;childLayout=stackLayout;horizontal=1;startSize=26;fillColor=none;horizontalStack=0;resizeParent=1;resizeParentMax=0;resizeLast=0;collapsible=1;marginBottom=0;labelBackgroundColor=none;fontFamily=Helvetica;fontColor=#000000;" vertex="1" parent="1">
          <mxGeometry x="250" y="260" width="170" height="78" as="geometry">
            <mxRectangle x="50" y="510" width="110" height="26" as="alternateBounds" />
          </mxGeometry>
        </mxCell>
        <mxCell id="slNrmW9RMhDzgAEfFMF--17" value="+ modemDAO : ModemDAO" style="text;strokeColor=none;fillColor=none;align=left;verticalAlign=top;spacingLeft=4;spacingRight=4;overflow=hidden;rotatable=0;points=[[0,0.5],[1,0.5]];portConstraint=eastwest;labelBackgroundColor=none;fontFamily=Helvetica;fontColor=#000000;" vertex="1" parent="slNrmW9RMhDzgAEfFMF--15">
          <mxGeometry y="26" width="170" height="26" as="geometry" />
        </mxCell>
        <mxCell id="slNrmW9RMhDzgAEfFMF--18" value="+ stopFlag : boolean" style="text;strokeColor=none;fillColor=none;align=left;verticalAlign=top;spacingLeft=4;spacingRight=4;overflow=hidden;rotatable=0;points=[[0,0.5],[1,0.5]];portConstraint=eastwest;labelBackgroundColor=none;fontFamily=Helvetica;fontColor=#000000;" vertex="1" parent="slNrmW9RMhDzgAEfFMF--15">
          <mxGeometry y="52" width="170" height="26" as="geometry" />
        </mxCell>
        <mxCell id="slNrmW9RMhDzgAEfFMF--19" value="Main" style="swimlane;fontStyle=0;childLayout=stackLayout;horizontal=1;startSize=26;fillColor=none;horizontalStack=0;resizeParent=1;resizeParentMax=0;resizeLast=0;collapsible=1;marginBottom=0;labelBackgroundColor=none;fontFamily=Helvetica;fontColor=#000000;" vertex="1" parent="1">
          <mxGeometry x="250" y="190" width="230" height="52" as="geometry" />
        </mxCell>
        <mxCell id="slNrmW9RMhDzgAEfFMF--20" value="+ modemThreads :Â List&lt;ModemThread&gt;" style="text;strokeColor=none;fillColor=none;align=left;verticalAlign=top;spacingLeft=4;spacingRight=4;overflow=hidden;rotatable=0;points=[[0,0.5],[1,0.5]];portConstraint=eastwest;labelBackgroundColor=none;fontFamily=Helvetica;fontColor=#000000;" vertex="1" parent="slNrmW9RMhDzgAEfFMF--19">
          <mxGeometry y="26" width="230" height="26" as="geometry" />
        </mxCell>
      </root>
    </mxGraphModel>
  </diagram>
</mxfile>
